<?xml version="1.0" encoding="UTF-8"?>
<svg id="Camada_2" data-name="Camada 2" xmlns="http://www.w3.org/2000/svg" viewBox="0 0 276.92 276.92">
  <defs>
    <style>
      .cls-1 {
        fill: #eff4f1;
        fill-rule: evenodd;
      }
    </style>
  </defs>
  <g id="Camada_1-2" data-name="Camada 1">
    <g>
      <path class="cls-1" d="M125.27,64.86l1.56,1.22c.74,1.26,11,6.03,13.63,6.38.22-.88.69-1.93,1-2.85.9-2.67,1.81-6.44,2.29-9.22,2.2-12.7,1.86-23.47,1.18-36.18-.12-2.3-.47-4.93-.51-7.12.92,1.78,2.02,6.39,2.51,8.64,2.09,9.47,2.83,20.9,1.48,30.47-1.19,8.45-4.31,17.85-9.07,24.42-1.33,1.84-2.13,3.03-3.7,4.65-.42.44-1.06.91-1.36,1.45.98,2.38,3.7,3.25,6.41,1.76,1.16-.64,1.48-1.31,2.2-2.57,1.67-2.94,3.13-7,4.02-10.29.13-.48.88-3.65.97-3.79.59-.88,19.17-5.15,21.14-21.76,1.26-10.62-4.79-22.43-9.06-29-1.28-1.97-2.48-3.78-3.86-5.68-1.96-2.71-10.89-13.92-13.2-15.38-1.98,1.3-10.31,11.45-11.72,13.28-6.95,9.01-15.39,22.89-14.66,35.42.22,3.76,1.34,6.95,2.91,9.7.78,1.37,1.7,2.49,2.64,3.58.48.56,2.73,2.88,3.19,2.87Z"/>
      <path class="cls-1" d="M181.18,77.08l.24,1.96c-.37,1.41,3.51,12.04,5.13,14.15.78-.46,1.85-.88,2.72-1.31,2.53-1.26,5.84-3.28,8.14-4.9,10.53-7.42,17.91-15.28,26.42-24.75,1.54-1.71,3.16-3.82,4.68-5.39-.61,1.91-3.09,5.95-4.33,7.89-5.22,8.18-12.78,16.78-20.5,22.59-6.82,5.13-15.67,9.57-23.68,10.85-2.24.36-3.65.63-5.9.67-.61.01-1.39-.11-1.99.06-.99,2.37.32,4.91,3.29,5.78,1.27.37,1.97.12,3.37-.26,3.26-.89,7.16-2.74,10.12-4.44.43-.25,3.2-1.96,3.37-1.99,1.04-.21,17.2,9.91,30.33-.44,8.4-6.62,12.47-19.25,14.1-26.91.49-2.3.92-4.43,1.29-6.74.53-3.31,2.14-17.55,1.54-20.21-2.32-.48-15.38.8-17.68,1.1-11.29,1.46-27.07,5.3-35.42,14.68-2.5,2.81-3.97,5.86-4.8,8.92-.41,1.52-.56,2.96-.67,4.4-.06.73-.1,3.97.23,4.28Z"/>
      <path class="cls-1" d="M212.07,125.27l-1.22,1.56c-1.26.74-6.03,11-6.38,13.63.88.22,1.93.69,2.85,1,2.67.9,6.44,1.81,9.22,2.29,12.7,2.2,23.47,1.86,36.18,1.18,2.3-.12,4.93-.47,7.12-.51-1.78.92-6.39,2.02-8.64,2.51-9.47,2.09-20.9,2.83-30.47,1.48-8.45-1.19-17.85-4.31-24.42-9.07-1.84-1.33-3.03-2.13-4.65-3.7-.44-.42-.91-1.06-1.45-1.36-2.38.98-3.25,3.7-1.76,6.41.64,1.16,1.31,1.48,2.57,2.2,2.94,1.67,7,3.13,10.29,4.02.48.13,3.65.88,3.79.97.88.59,5.15,19.17,21.76,21.14,10.62,1.26,22.43-4.79,29-9.06,1.97-1.28,3.78-2.48,5.68-3.86,2.71-1.96,13.92-10.89,15.38-13.2-1.3-1.98-11.45-10.31-13.28-11.72-9.01-6.95-22.89-15.39-35.42-14.66-3.76.22-6.95,1.34-9.7,2.91-1.37.78-2.49,1.7-3.58,2.64-.56.48-2.88,2.73-2.87,3.19Z"/>
      <path class="cls-1" d="M199.84,181.18l-1.96.24c-1.41-.37-12.04,3.51-14.15,5.13.46.78.88,1.85,1.31,2.72,1.26,2.53,3.28,5.84,4.9,8.14,7.42,10.53,15.28,17.91,24.75,26.42,1.71,1.54,3.82,3.16,5.39,4.68-1.91-.61-5.95-3.09-7.89-4.33-8.18-5.22-16.78-12.78-22.59-20.5-5.13-6.82-9.57-15.67-10.85-23.68-.36-2.24-.63-3.65-.67-5.9-.01-.61.11-1.39-.06-1.99-2.37-.99-4.91.32-5.78,3.29-.37,1.27-.12,1.97.26,3.37.89,3.26,2.74,7.16,4.44,10.12.25.43,1.96,3.2,1.99,3.37.21,1.04-9.91,17.2.44,30.33,6.62,8.4,19.25,12.47,26.91,14.1,2.3.49,4.43.92,6.74,1.29,3.31.53,17.55,2.14,20.21,1.54.48-2.32-.8-15.38-1.1-17.68-1.46-11.29-5.3-27.07-14.68-35.42-2.81-2.5-5.86-3.97-8.92-4.8-1.52-.41-2.96-.56-4.4-.67-.73-.06-3.97-.1-4.28.23Z"/>
      <path class="cls-1" d="M151.65,212.07l-1.56-1.22c-.74-1.26-11-6.03-13.63-6.38-.22.88-.69,1.93-1,2.85-.9,2.67-1.81,6.44-2.29,9.22-2.2,12.7-1.86,23.47-1.18,36.18.12,2.3.47,4.93.51,7.12-.92-1.78-2.02-6.39-2.51-8.64-2.09-9.47-2.83-20.9-1.48-30.47,1.19-8.45,4.31-17.85,9.07-24.42,1.33-1.84,2.13-3.03,3.7-4.65.42-.44,1.06-.91,1.36-1.45-.98-2.38-3.7-3.25-6.41-1.76-1.16.64-1.48,1.31-2.2,2.57-1.67,2.94-3.13,7-4.02,10.29-.13.48-.88,3.65-.97,3.79-.59.88-19.17,5.15-21.14,21.76-1.26,10.62,4.79,22.43,9.06,29,1.28,1.97,2.48,3.78,3.86,5.68,1.96,2.71,10.89,13.92,13.2,15.38,1.98-1.3,10.31-11.45,11.72-13.28,6.95-9.01,15.39-22.89,14.66-35.42-.22-3.76-1.34-6.95-2.91-9.7-.78-1.37-1.7-2.49-2.64-3.58-.48-.56-2.73-2.88-3.19-2.87Z"/>
      <path class="cls-1" d="M95.74,199.84l-.24-1.96c.37-1.41-3.51-12.04-5.13-14.15-.78.46-1.85.88-2.72,1.31-2.53,1.26-5.84,3.28-8.14,4.9-10.53,7.42-17.91,15.28-26.42,24.75-1.54,1.71-3.16,3.82-4.68,5.39.61-1.91,3.09-5.95,4.33-7.89,5.22-8.18,12.78-16.78,20.5-22.59,6.82-5.13,15.67-9.57,23.68-10.85,2.24-.36,3.65-.63,5.9-.67.61-.01,1.39.11,1.99-.06.99-2.37-.32-4.91-3.29-5.78-1.27-.37-1.97-.12-3.37.26-3.26.89-7.16,2.74-10.12,4.44-.43.25-3.2,1.96-3.37,1.99-1.04.21-17.2-9.91-30.33.44-8.4,6.62-12.47,19.25-14.1,26.91-.49,2.3-.92,4.43-1.29,6.74-.53,3.31-2.14,17.55-1.54,20.21,2.32.48,15.38-.8,17.68-1.1,11.29-1.46,27.07-5.3,35.42-14.68,2.5-2.81,3.97-5.86,4.8-8.92.41-1.52.56-2.96.67-4.4.06-.73.1-3.97-.23-4.28Z"/>
      <path class="cls-1" d="M64.86,151.65l1.22-1.56c1.26-.74,6.03-11,6.38-13.63-.88-.22-1.93-.69-2.85-1-2.67-.9-6.44-1.81-9.22-2.29-12.7-2.2-23.47-1.86-36.18-1.18-2.3.12-4.93.47-7.12.51,1.78-.92,6.39-2.02,8.64-2.51,9.47-2.09,20.9-2.83,30.47-1.48,8.45,1.19,17.85,4.31,24.42,9.07,1.84,1.33,3.03,2.13,4.65,3.7.44.42.91,1.06,1.45,1.36,2.38-.98,3.25-3.7,1.76-6.41-.64-1.16-1.31-1.48-2.57-2.2-2.94-1.67-7-3.13-10.29-4.02-.48-.13-3.65-.88-3.79-.97-.88-.59-5.15-19.17-21.76-21.14-10.62-1.26-22.43,4.79-29,9.06-1.97,1.28-3.78,2.48-5.68,3.86-2.71,1.96-13.92,10.89-15.38,13.2,1.3,1.98,11.45,10.31,13.28,11.72,9.01,6.95,22.89,15.39,35.42,14.66,3.76-.22,6.95-1.34,9.7-2.91,1.37-.78,2.49-1.7,3.58-2.64.56-.48,2.88-2.73,2.87-3.19Z"/>
      <path class="cls-1" d="M77.08,95.74l1.96-.24c1.41.37,12.04-3.51,14.15-5.13-.46-.78-.88-1.85-1.31-2.72-1.26-2.53-3.28-5.84-4.9-8.14-7.42-10.53-15.28-17.91-24.75-26.42-1.71-1.54-3.82-3.16-5.39-4.68,1.91.61,5.95,3.09,7.89,4.33,8.18,5.22,16.78,12.78,22.59,20.5,5.13,6.82,9.57,15.67,10.85,23.68.36,2.24.63,3.65.67,5.9.01.61-.11,1.39.06,1.99,2.37.99,4.91-.32,5.78-3.29.37-1.27.12-1.97-.26-3.37-.89-3.26-2.74-7.16-4.44-10.12-.25-.43-1.96-3.2-1.99-3.37-.21-1.04,9.91-17.2-.44-30.33-6.62-8.4-19.25-12.47-26.91-14.1-2.3-.49-4.43-.92-6.74-1.29-3.31-.53-17.55-2.14-20.21-1.54-.48,2.32.8,15.38,1.1,17.68,1.46,11.29,5.3,27.07,14.68,35.42,2.81,2.5,5.86,3.97,8.92,4.8,1.52.41,2.96.56,4.4.67.73.06,3.97.1,4.28-.23Z"/>
    </g>
  </g>
</svg>