<?xml version="1.0" encoding="UTF-8"?>
<svg id="Camada_2" data-name="Camada 2" xmlns="http://www.w3.org/2000/svg" viewBox="0 0 1155.11 379.76">
  <defs>
    <style>
      .cls-1, .cls-2 {
        fill: #eff4f1;
      }

      .cls-2 {
        fill-rule: evenodd;
      }
    </style>
  </defs>
  <g id="Camada_1-2" data-name="Camada 1">
    <g>
      <path class="cls-2" d="M171.79,88.94l2.14,1.67c1.01,1.72,15.08,8.27,18.7,8.75.31-1.21.94-2.64,1.37-3.91,1.23-3.67,2.49-8.84,3.14-12.64,3.02-17.41,2.55-32.19,1.62-49.62-.17-3.15-.64-6.76-.69-9.77,1.26,2.44,2.77,8.77,3.45,11.85,2.87,12.99,3.88,28.66,2.03,41.79-1.64,11.58-5.91,24.48-12.44,33.49-1.83,2.52-2.93,4.15-5.07,6.37-.58.6-1.46,1.24-1.86,1.99,1.34,3.26,5.07,4.45,8.79,2.42,1.6-.87,2.03-1.79,3.02-3.53,2.29-4.03,4.29-9.6,5.51-14.11.18-.66,1.21-5,1.34-5.19.81-1.21,26.29-7.07,28.99-29.84,1.73-14.57-6.57-30.76-12.43-39.77-1.76-2.71-3.4-5.18-5.29-7.79-2.69-3.72-14.94-19.09-18.1-21.09-2.71,1.79-14.14,15.7-16.08,18.21-9.53,12.36-21.11,31.4-20.11,48.58.3,5.15,1.84,9.54,3.99,13.31,1.08,1.88,2.34,3.41,3.62,4.91.65.76,3.75,3.95,4.37,3.93Z"/>
      <path class="cls-2" d="M248.46,105.71l.33,2.69c-.5,1.93,4.82,16.52,7.03,19.41,1.07-.64,2.53-1.2,3.73-1.8,3.46-1.72,8.01-4.49,11.16-6.71,14.45-10.18,24.56-20.96,36.23-33.94,2.11-2.35,4.33-5.23,6.42-7.4-.83,2.62-4.24,8.16-5.94,10.82-7.15,11.22-17.52,23.01-28.11,30.98-9.35,7.03-21.49,13.13-32.48,14.88-3.08.49-5,.87-8.09.92-.84.01-1.91-.15-2.72.09-1.36,3.25.44,6.73,4.51,7.93,1.75.51,2.7.17,4.63-.36,4.47-1.23,9.82-3.76,13.88-6.08.59-.34,4.39-2.68,4.62-2.73,1.43-.28,23.58,13.59,41.6-.6,11.52-9.08,17.1-26.4,19.33-36.91.67-3.16,1.26-6.07,1.77-9.25.73-4.54,2.94-24.06,2.12-27.71-3.18-.65-21.1,1.1-24.24,1.51-15.48,2-37.13,7.27-48.57,20.14-3.43,3.86-5.44,8.04-6.58,12.23-.57,2.09-.76,4.07-.92,6.03-.08,1-.14,5.44.31,5.87Z"/>
      <path class="cls-2" d="M290.82,171.79l-1.67,2.14c-1.72,1.01-8.27,15.08-8.75,18.7,1.21.31,2.64.94,3.91,1.37,3.67,1.23,8.84,2.49,12.64,3.14,17.41,3.02,32.19,2.55,49.62,1.62,3.15-.17,6.76-.64,9.77-.69-2.44,1.26-8.77,2.77-11.85,3.45-12.99,2.87-28.66,3.88-41.79,2.03-11.58-1.64-24.48-5.91-33.49-12.44-2.52-1.83-4.15-2.93-6.37-5.07-.6-.58-1.24-1.46-1.99-1.86-3.26,1.34-4.45,5.07-2.42,8.79.87,1.6,1.79,2.03,3.53,3.02,4.03,2.29,9.6,4.29,14.11,5.51.66.18,5,1.21,5.19,1.34,1.21.81,7.07,26.29,29.84,28.99,14.57,1.73,30.76-6.57,39.77-12.43,2.71-1.76,5.18-3.4,7.79-5.29,3.72-2.69,19.09-14.94,21.09-18.1-1.79-2.71-15.7-14.14-18.21-16.08-12.36-9.53-31.4-21.11-48.58-20.11-5.15.3-9.54,1.84-13.31,3.99-1.88,1.08-3.41,2.34-4.91,3.62-.76.65-3.95,3.75-3.93,4.37Z"/>
      <path class="cls-2" d="M274.05,248.46l-2.69.33c-1.93-.5-16.52,4.82-19.41,7.03.64,1.07,1.2,2.53,1.8,3.73,1.72,3.46,4.49,8.01,6.71,11.16,10.18,14.45,20.96,24.56,33.94,36.23,2.35,2.11,5.23,4.33,7.4,6.42-2.62-.83-8.16-4.24-10.82-5.94-11.22-7.15-23.01-17.52-30.98-28.11-7.03-9.35-13.13-21.49-14.88-32.48-.49-3.08-.87-5-.92-8.09-.01-.84.15-1.91-.09-2.72-3.25-1.36-6.73.44-7.93,4.51-.51,1.75-.17,2.7.36,4.63,1.23,4.47,3.76,9.82,6.08,13.88.34.59,2.68,4.39,2.73,4.62.28,1.43-13.59,23.58.6,41.6,9.08,11.52,26.4,17.1,36.91,19.33,3.16.67,6.07,1.26,9.25,1.77,4.54.73,24.06,2.94,27.71,2.12.65-3.18-1.1-21.1-1.51-24.24-2-15.48-7.27-37.13-20.14-48.57-3.86-3.43-8.04-5.44-12.23-6.58-2.09-.57-4.07-.76-6.03-.92-1-.08-5.44-.14-5.87.31Z"/>
      <path class="cls-2" d="M207.97,290.82l-2.14-1.67c-1.01-1.72-15.08-8.27-18.7-8.75-.31,1.21-.94,2.64-1.37,3.91-1.23,3.67-2.49,8.84-3.14,12.64-3.02,17.41-2.55,32.19-1.62,49.62.17,3.15.64,6.76.69,9.77-1.26-2.44-2.77-8.77-3.45-11.85-2.87-12.99-3.88-28.66-2.03-41.79,1.64-11.58,5.91-24.48,12.44-33.49,1.83-2.52,2.93-4.15,5.07-6.37.58-.6,1.46-1.24,1.86-1.99-1.34-3.26-5.07-4.45-8.79-2.42-1.6.87-2.03,1.79-3.02,3.53-2.29,4.03-4.29,9.6-5.51,14.11-.18.66-1.21,5-1.34,5.19-.81,1.21-26.29,7.07-28.99,29.84-1.73,14.57,6.57,30.76,12.43,39.77,1.76,2.71,3.4,5.18,5.29,7.79,2.69,3.72,14.94,19.09,18.1,21.09,2.71-1.79,14.14-15.7,16.08-18.21,9.53-12.36,21.11-31.4,20.11-48.58-.3-5.15-1.84-9.54-3.99-13.31-1.08-1.88-2.34-3.41-3.62-4.91-.65-.76-3.75-3.95-4.37-3.93Z"/>
      <path class="cls-2" d="M131.3,274.05l-.33-2.69c.5-1.93-4.82-16.52-7.03-19.41-1.07.64-2.53,1.2-3.73,1.8-3.46,1.72-8.01,4.49-11.16,6.71-14.45,10.18-24.56,20.96-36.23,33.94-2.11,2.35-4.33,5.23-6.42,7.4.83-2.62,4.24-8.16,5.94-10.82,7.15-11.22,17.52-23.01,28.11-30.98,9.35-7.03,21.49-13.13,32.48-14.88,3.08-.49,5-.87,8.09-.92.84-.01,1.91.15,2.72-.09,1.36-3.25-.44-6.73-4.51-7.93-1.75-.51-2.7-.17-4.63.36-4.47,1.23-9.82,3.76-13.88,6.08-.59.34-4.39,2.68-4.62,2.73-1.43.28-23.58-13.59-41.6.6-11.52,9.08-17.1,26.4-19.33,36.91-.67,3.16-1.26,6.07-1.77,9.25-.73,4.54-2.94,24.06-2.12,27.71,3.18.65,21.1-1.1,24.24-1.51,15.48-2,37.13-7.27,48.57-20.14,3.43-3.86,5.44-8.04,6.58-12.23.57-2.09.76-4.07.92-6.03.08-1,.14-5.44-.31-5.87Z"/>
      <path class="cls-2" d="M88.94,207.97l1.67-2.14c1.72-1.01,8.27-15.08,8.75-18.7-1.21-.31-2.64-.94-3.91-1.37-3.67-1.23-8.84-2.49-12.64-3.14-17.41-3.02-32.19-2.55-49.62-1.62-3.15.17-6.76.64-9.77.69,2.44-1.26,8.77-2.77,11.85-3.45,12.99-2.87,28.66-3.88,41.79-2.03,11.58,1.64,24.48,5.91,33.49,12.44,2.52,1.83,4.15,2.93,6.37,5.07.6.58,1.24,1.46,1.99,1.86,3.26-1.34,4.45-5.07,2.42-8.79-.87-1.6-1.79-2.03-3.53-3.02-4.03-2.29-9.6-4.29-14.11-5.51-.66-.18-5-1.21-5.19-1.34-1.21-.81-7.07-26.29-29.84-28.99-14.57-1.73-30.76,6.57-39.77,12.43-2.71,1.76-5.18,3.4-7.79,5.29-3.72,2.69-19.09,14.94-21.09,18.1,1.79,2.71,15.7,14.14,18.21,16.08,12.36,9.53,31.4,21.11,48.58,20.11,5.15-.3,9.54-1.84,13.31-3.99,1.88-1.08,3.41-2.34,4.91-3.62.76-.65,3.95-3.75,3.93-4.37Z"/>
      <path class="cls-2" d="M105.71,131.3l2.69-.33c1.93.5,16.52-4.82,19.41-7.03-.64-1.07-1.2-2.53-1.8-3.73-1.72-3.46-4.49-8.01-6.71-11.16-10.18-14.45-20.96-24.56-33.94-36.23-2.35-2.11-5.23-4.33-7.4-6.42,2.62.83,8.16,4.24,10.82,5.94,11.22,7.15,23.01,17.52,30.98,28.11,7.03,9.35,13.13,21.49,14.88,32.48.49,3.08.87,5,.92,8.09.01.84-.15,1.91.09,2.72,3.25,1.36,6.73-.44,7.93-4.51.51-1.75.17-2.7-.36-4.63-1.23-4.47-3.76-9.82-6.08-13.88-.34-.59-2.68-4.39-2.73-4.62-.28-1.43,13.59-23.58-.6-41.6-9.08-11.52-26.4-17.1-36.91-19.33-3.16-.67-6.07-1.26-9.25-1.77-4.54-.73-24.06-2.94-27.71-2.12-.65,3.18,1.1,21.1,1.51,24.24,2,15.48,7.27,37.13,20.14,48.57,3.86,3.43,8.04,5.44,12.23,6.58,2.09.57,4.07.76,6.03.92,1,.08,5.44.14,5.87-.31Z"/>
      <g>
        <path class="cls-1" d="M476.63,46.86h33.45v117.2c0,16.91-4.61,30.36-13.82,40.37-9.21,10.01-21.05,15.01-35.53,15.01-16.29,0-29.14-4.44-38.55-13.32-9.41-8.88-13.96-21.85-13.64-38.91l.36-.7h32.38c0,9.27,1.8,16.13,5.4,20.57,3.6,4.44,8.28,6.66,14.06,6.66,4.67,0,8.48-2.65,11.45-7.95,2.97-5.3,4.45-12.54,4.45-21.73V46.86Z"/>
        <path class="cls-1" d="M656.93,46.74v111.2c0,19.33-5.63,34.42-16.9,45.25-11.27,10.84-25.96,16.25-44.07,16.25s-32.66-5.44-43.89-16.31c-11.23-10.88-16.84-25.94-16.84-45.19V46.74h33.33v111.2c0,11.62,2.45,20.48,7.35,26.6,4.9,6.12,11.58,9.18,20.05,9.18s15.36-3.04,20.22-9.12c4.86-6.08,7.3-14.97,7.3-26.66V46.74h33.45Z"/>
        <path class="cls-1" d="M804.61,219.45h-33.45l-54.8-110.2-.71.12v110.08h-33.45V46.74h33.45l54.8,110.31.71-.12V46.74h33.45v172.71Z"/>
        <path class="cls-1" d="M863.29,219.62h-33.33V46.91h33.33v172.71Z"/>
        <path class="cls-1" d="M1014.17,156.66c0,19.74-5.73,35.14-17.2,46.2-11.47,11.06-26.73,16.59-45.79,16.59s-34.28-5.53-45.67-16.59c-11.39-11.06-17.08-26.46-17.08-46.2v-46.78c0-19.66,5.67-35.08,17.02-46.26,11.35-11.18,26.55-16.76,45.61-16.76s34.34,5.59,45.85,16.76c11.51,11.18,17.26,26.6,17.26,46.26v46.78ZM980.84,109.54c0-12.21-2.55-21.43-7.65-27.65-5.1-6.22-12.47-9.33-22.12-9.33s-17.04,3.09-21.94,9.27c-4.9,6.18-7.35,15.42-7.35,27.71v47.12c0,12.44,2.47,21.77,7.41,28,4.94,6.22,12.28,9.33,22,9.33s17.1-3.11,22.12-9.33c5.02-6.22,7.53-15.55,7.53-28v-47.12Z"/>
        <path class="cls-1" d="M1072.79,150.18v69.27h-33.45V46.86h51.72c17.16,0,30.66,4.47,40.51,13.4,9.84,8.94,14.77,21.39,14.77,37.36,0,8.94-2.08,16.69-6.23,23.25-4.15,6.56-10.14,11.78-17.97,15.66,9.01,3.01,15.5,7.99,19.45,14.95,3.95,6.96,5.93,15.66,5.93,26.1v12.57c0,4.82.55,9.89,1.66,15.18,1.11,5.3,3.08,9.17,5.93,11.62v2.49h-34.64c-2.77-2.53-4.53-6.66-5.28-12.39-.75-5.73-1.13-11.45-1.13-17.14v-12.1c0-8.78-1.82-15.58-5.46-20.4-3.64-4.82-8.86-7.24-15.66-7.24h-20.16ZM1072.79,124.08h18.03c7.19,0,12.67-2.15,16.43-6.47,3.75-4.31,5.63-10.42,5.63-18.33s-1.86-14.47-5.57-19.22c-3.72-4.74-9.13-7.12-16.25-7.12h-18.27v51.12Z"/>
      </g>
      <path class="cls-1" d="M453.12,301.12c0-3.01-1.08-5.42-3.23-7.25-2.15-1.82-5.94-3.54-11.35-5.15-9.28-2.72-16.32-5.92-21.13-9.61-4.81-3.69-7.21-8.72-7.21-15.09s2.71-11.64,8.12-15.71c5.41-4.06,12.32-6.09,20.72-6.09,8.91,0,16.08,2.18,21.52,6.55,5.43,4.37,8.06,10.09,7.87,17.18l-.11.32h-15.63c0-3.9-1.22-6.9-3.65-8.99-2.43-2.09-5.84-3.14-10.22-3.14-3.98,0-7.05.93-9.23,2.79-2.17,1.86-3.26,4.24-3.26,7.14,0,2.65,1.18,4.82,3.53,6.52,2.36,1.7,6.43,3.5,12.21,5.4,8.84,2.43,15.58,5.61,20.22,9.53,4.64,3.92,6.96,9.08,6.96,15.49s-2.69,11.97-8.07,15.84c-5.38,3.87-12.48,5.8-21.32,5.8s-16.09-2.09-22.29-6.28c-6.21-4.19-9.22-10.43-9.03-18.74l.11-.32h15.63c0,4.62,1.4,8.02,4.2,10.2,2.8,2.18,6.59,3.28,11.38,3.28,4.31,0,7.6-.88,9.86-2.63,2.26-1.75,3.4-4.1,3.4-7.04Z"/>
      <path class="cls-1" d="M546.58,242.21v51.9c0,8.93-3,15.92-9.01,20.97-6,5.05-13.79,7.57-23.37,7.57s-17.28-2.52-23.23-7.57c-5.95-5.05-8.92-12.04-8.92-20.97v-51.9h16.19v51.9c0,5.3,1.44,9.35,4.31,12.14,2.87,2.8,6.76,4.19,11.66,4.19s8.91-1.4,11.82-4.19c2.91-2.79,4.36-6.84,4.36-12.14v-51.9h16.19Z"/>
      <path class="cls-1" d="M559.38,322.65v-80.43h26.35c9.46,0,16.85,1.85,22.15,5.55,5.3,3.7,7.95,9.2,7.95,16.49,0,3.68-.96,6.98-2.87,9.89-1.92,2.91-4.71,5.1-8.4,6.57,5.01.92,8.78,3.09,11.32,6.52,2.54,3.42,3.81,7.42,3.81,11.99,0,7.7-2.54,13.53-7.62,17.48-5.08,3.96-12.28,5.94-21.6,5.94h-31.1ZM575.51,275.91h10.77c4.31,0,7.62-.88,9.94-2.65,2.32-1.77,3.48-4.34,3.48-7.73,0-3.72-1.17-6.47-3.51-8.23-2.34-1.77-5.83-2.65-10.47-2.65h-10.22v21.27ZM575.51,287.07v23.2h14.97c4.27,0,7.53-.93,9.78-2.79,2.25-1.86,3.37-4.61,3.37-8.26,0-3.9-1.1-6.91-3.31-9.01-2.21-2.1-5.54-3.15-10-3.15h-14.81Z"/>
      <path class="cls-1" d="M677.1,301.12c0-3.01-1.08-5.42-3.23-7.25-2.15-1.82-5.94-3.54-11.35-5.15-9.28-2.72-16.32-5.92-21.13-9.61-4.8-3.69-7.21-8.72-7.21-15.09s2.71-11.64,8.12-15.71c5.41-4.06,12.32-6.09,20.72-6.09,8.91,0,16.08,2.18,21.52,6.55,5.43,4.37,8.06,10.09,7.87,17.18l-.11.32h-15.63c0-3.9-1.22-6.9-3.65-8.99-2.43-2.09-5.84-3.14-10.22-3.14-3.98,0-7.05.93-9.23,2.79-2.17,1.86-3.26,4.24-3.26,7.14,0,2.65,1.18,4.82,3.54,6.52,2.36,1.7,6.43,3.5,12.21,5.4,8.84,2.43,15.58,5.61,20.22,9.53,4.64,3.92,6.96,9.08,6.96,15.49s-2.69,11.97-8.07,15.84c-5.38,3.87-12.48,5.8-21.32,5.8s-16.09-2.09-22.29-6.28c-6.21-4.19-9.22-10.43-9.03-18.74l.11-.32h15.63c0,4.62,1.4,8.02,4.2,10.2,2.8,2.18,6.59,3.28,11.38,3.28,4.31,0,7.6-.88,9.86-2.63,2.27-1.75,3.4-4.1,3.4-7.04Z"/>
      <path class="cls-1" d="M766.55,254.64h-22.98v68h-16.13v-68h-22.65v-12.43h61.76v12.43Z"/>
      <path class="cls-1" d="M795.48,290.5v32.15h-16.13v-80.43h27.84c9.17,0,16.34,2.09,21.52,6.27,5.17,4.18,7.76,10.01,7.76,17.48,0,4.13-1.1,7.69-3.29,10.69-2.19,3-5.39,5.42-9.59,7.27,4.75,1.4,8.17,3.74,10.25,7.01,2.08,3.28,3.12,7.33,3.12,12.15v5.91c0,2.25.3,4.59.91,7.04.61,2.45,1.65,4.26,3.12,5.44v1.16h-16.63c-1.47-1.18-2.42-3.13-2.85-5.86-.42-2.72-.63-5.36-.63-7.9v-5.69c0-4.01-1.1-7.14-3.29-9.37-2.19-2.23-5.3-3.34-9.31-3.34h-12.82ZM795.48,278.07h11.44c4.53,0,7.9-.96,10.11-2.87,2.21-1.92,3.31-4.75,3.31-8.51s-1.11-6.61-3.34-8.78c-2.23-2.17-5.5-3.26-9.81-3.26h-11.71v23.42Z"/>
      <path class="cls-1" d="M902.14,305.3h-26.07l-5.41,17.35h-16.85l27.12-80.43h16.52l27.01,80.43h-16.85l-5.47-17.35ZM880.04,292.65h18.17l-8.89-28.34h-.33l-8.95,28.34Z"/>
      <path class="cls-1" d="M999.02,254.67h-22.98v68h-16.13v-68h-22.65v-12.43h61.76v12.43Z"/>
      <path class="cls-1" d="M1078.95,289.46c0,9.63-3.11,17.57-9.34,23.81-6.22,6.25-14.33,9.37-24.31,9.37s-18.01-3.13-24.19-9.4c-6.19-6.26-9.28-14.19-9.28-23.79v-14.07c0-9.56,3.08-17.48,9.25-23.76,6.17-6.28,14.21-9.42,24.11-9.42s18.1,3.14,24.36,9.42c6.26,6.28,9.39,14.2,9.39,23.76v14.07ZM1062.87,275.29c0-6.09-1.57-11.08-4.7-14.98-3.13-3.9-7.46-5.85-12.98-5.85s-9.7,1.95-12.73,5.85c-3.04,3.9-4.56,8.89-4.56,14.98v14.17c0,6.19,1.53,11.24,4.59,15.14,3.06,3.9,7.33,5.85,12.82,5.85s9.83-1.95,12.93-5.85c3.1-3.9,4.64-8.95,4.64-15.14v-14.17Z"/>
      <path class="cls-1" d="M1136.34,301.14c0-3.01-1.08-5.42-3.23-7.25-2.15-1.82-5.94-3.54-11.35-5.15-9.28-2.72-16.32-5.92-21.13-9.61-4.8-3.69-7.21-8.72-7.21-15.09s2.71-11.64,8.12-15.71c5.41-4.06,12.32-6.09,20.72-6.09,8.91,0,16.08,2.18,21.52,6.55,5.43,4.37,8.06,10.09,7.87,17.18l-.11.32h-15.63c0-3.9-1.22-6.9-3.65-8.99-2.43-2.09-5.84-3.14-10.22-3.14-3.98,0-7.05.93-9.23,2.79-2.17,1.86-3.26,4.24-3.26,7.14,0,2.65,1.18,4.82,3.54,6.52,2.36,1.7,6.43,3.5,12.21,5.4,8.84,2.43,15.58,5.61,20.22,9.53,4.64,3.92,6.96,9.08,6.96,15.49s-2.69,11.97-8.07,15.84c-5.38,3.87-12.48,5.8-21.32,5.8s-16.09-2.09-22.29-6.28c-6.21-4.19-9.22-10.43-9.03-18.74l.11-.32h15.63c0,4.62,1.4,8.02,4.2,10.2,2.8,2.18,6.59,3.28,11.38,3.28,4.31,0,7.6-.88,9.86-2.63,2.27-1.75,3.4-4.1,3.4-7.04Z"/>
    </g>
  </g>
</svg>